<svg xmlns="http://www.w3.org/2000/svg" xmlns:xlink="http://www.w3.org/1999/xlink" aria-hidden="true" role="img" class="iconify iconify--logos" width="35.93" height="32" preserveAspectRatio="xMidYMid meet" viewBox="0 0 256 228"><path fill="#00D8FF" d="M210.483 73.824a171.49 171.49 0 0 0-8.24-2.597c.465-1.9.893-3.777 1.273-5.621c6.238-30.281 2.16-54.676-11.769-62.708c-13.355-7.7-35.196.329-57.254 19.526a171.23 171.23 0 0 0-6.375 5.848a155.866 155.866 0 0 0-4.241-3.917C100.759 3.829 77.587-4.822 63.673 3.233C50.33 10.957 46.379 32.432 51.995 62.044a170.68 170.68 0 0 0 1.892 8.48c-3.28.932-6.445 1.924-9.474 2.98C17.309 83.498 0 98.307 0 113.668c0 15.865 18.582 31.778 46.812 41.427a145.52 145.52 0 0 0 6.921 2.165a167.467 167.467 0 0 0-2.01 9.138c-5.354 29.2-1.173 50.591 12.134 58.266c13.744 7.926 36.812-.22 59.273-19.855a145.567 145.567 0 0 0 5.342-4.923a168.064 168.064 0 0 0 6.92 6.314c21.758 18.722 43.246 26.282 56.54 18.586c13.731-7.949 18.017-29.018 12.428-57.268a145.527 145.527 0 0 0-2.109-9.514a151.001 151.001 0 0 0 8.587-2.744c28.155-9.641 46.251-25.359 46.251-41.065c0-15.242-17.34-30.132-45.173-39.684ZM192.434 99.29l1.743-1.3a.52.52 0 0 1 .303-.104c1.73 0 2.563 2.841 1.219 5.479c-.248.484-.461.938-.7 1.344c-1.415-1.913-2.39-3.885-2.565-5.42Zm.71 20.065l1.148 5.519c-.161.087-.329.176-.505.263c-1.119.553-2.307 1.07-3.563 1.547l-1.104-5.534c1.642-.686 3.342-1.383 4.024-1.795Zm-39.4 24.789l-.205-.059c-.574-.166-1.382-.476-2.288-.905l2.039-8.212c1.171.509 2.242 1.017 3.139 1.52c.528.297.987.587 1.347.872c-.555.965-1.262 1.97-2.077 2.904c-.788.902-1.515 1.7-1.955 1.88Zm12.834 6.38c-2.697 1.911-6.018 3.444-9.569 4.512l-7.623-7.644a999.6 999.6 0 0 0 4.077-3.589c4.382-3.96 8.137-7.888 10.582-10.409c1.713 6.151 3.786 12.228 2.533 17.13Zm-25.799-9.485l-2.856.02c-.054-.477-.082-.972-.082-1.485c0-3.237.884-6.286 2.472-8.94c1.01 1.06 2.148 2.311 3.393 3.7c1.222 1.365 2.453 2.78 3.619 4.15c-2.124.993-4.423 1.932-6.546 2.555Zm-150.261-26.45c.124-9.643 14.862-21.756 38.504-29.14c5.425-1.694 11.221-3.15 17.192-4.362c1.681 2.833 3.706 5.985 6.029 9.372c2.315 3.375 4.777 6.88 7.334 10.41c-8.254 3.034-15.901 6.544-22.265 10.423c-7.237 4.406-12.386 9.3-14.83 13.3c-4.843-3.198-10.052-6.656-14.653-10.473c-4.598-3.815-8.215-7.707-10.361-10.53Zm27.002 44.96a183.78 183.78 0 0 1-5.16-1.488c-15.81-4.99-27.999-12.108-35.72-19.335c2.177-3.397 6.088-7.588 11.513-11.988c2.922-2.372 6.283-4.739 9.999-7.02c1.446 4.66 3.637 9.734 6.576 14.83c3.674 6.377 8.066 12.12 12.792 16.637v8.364Zm0 19.373c-6.355 2.66-13.432 5.041-20.655 6.98c-14.467 3.882-27.08 5.257-35.072 4.484c9.888-8.28 24.794-15.28 42.388-20.303a137.872 137.872 0 0 1 13.339-3.606v12.445Zm30.04 26.466c-13.54 2.86-24.338 4.143-31.695 4.127c3.46-9.463 11.155-20.27 23.63-30.672c3.686-3.07 7.744-6.046 12.14-8.874c-.098 5.218.076 10.827 1.435 16.433c1.41 5.82 3.807 11.116 7.218 15.694c-4.33 1.514-8.577 2.802-12.728 3.292ZM183.15 69.154c3.148-1.482 6.025-2.68 8.537-3.562c10.418-3.66 17.534-4.244 19.505-2.577c2.132 1.804 2.162 7.348.276 14.148c-1.205 4.34-3.218 9.163-5.9 14.137c-.525 1.463-1.132 3.047-1.834 4.738a85.808 85.808 0 0 0-5.53-3.545c-3.617-2.17-7.83-4.388-12.55-6.492c-2.716-1.21-5.614-2.362-8.683-3.42c1.408-4.075 2.699-7.599 3.83-10.347c1.694-4.117 3.053-7.684 3.349-11.08Zm.497 58.626c-1.685 2.771-3.367 5.163-4.86 7.07c-4.285 5.467-7.413 8.167-8.293 8.732c-1.052-.57-3.352-2.573-6.347-5.887c-1.716-1.898-3.728-4.266-5.922-7.06c-1.143-1.456-2.352-3.027-3.608-4.704c1.468-1.63 3.04-3.34 4.7-5.093c1.78-1.881 3.616-3.78 5.471-5.63c3.265 1.55 6.692 3.267 10.145 5.253c3.061 1.758 5.82 3.56 8.044 5.391c-.63.972-1.348 1.986-2.15 3.066c-.61.826-1.054 1.453-1.18 1.662Zm-50.753 9.28c-3.05-4.022-5.914-9.153-8.173-14.937c-1.798-4.607-3.046-9.342-3.538-13.951c3.347-.975 7.045-1.828 11.015-2.53c3.99-.705 8.3-1.128 12.76-1.226c0-1.005-.013-1.966-.013-2.857c0-5.322.543-9.95 1.518-13.767c4.877.39 9.725 1.024 14.233 1.877c7.665 1.45 14.03 3.476 18.675 5.657c-1.491 1.682-3.158 3.533-4.96 5.476c-2.853 3.074-5.93 6.28-9.12 9.384c-3.79-1.196-8.145-1.915-12.965-1.915c-6.13 0-11.767 1.14-16.827 3.124c-.001 7.378 1.373 14.897 4.642 21.665Zm72.942 36.418l-1.483 1.293c.17-.186.311-.384.445-.588c-.404.135-.81.262-1.229.38c-.898-4.218-.699-9.472.678-15.198c.239-.991.533-2.044.89-3.15c4.022 3.035 7.16 6.262 9.158 9.072c1.657 2.33 2.346 4.198 2.192 5.119c-1.453 1.752-5.877 3.828-10.65 3.072Zm22.206-36.787c4.593.834 8.513 1.797 11.672 2.88c9.117 3.127 13.344 6.946 13.344 10.277c0 3.948-5.205 8.385-14.52 11.522c-.826.279-1.726.552-2.692.82c.042-.419.079-.845.112-1.279c.807-10.499-3.992-20.44-7.916-24.22Zm-46.68 91.855c-3.611 2.44-7.565 4.108-11.488 4.853c-4.657.885-8.833.534-11.907-.512c1.518-4.349 4.39-9.62 8.985-15.279c2.234-2.75 4.89-5.514 7.908-8.206c1.564 3.569 3.635 6.792 6.019 9.477c2.548 2.868 5.37 5.192 8.236 6.72c-2.292 2.002-5.412 3.612-8.753 2.947Zm49.556-1.615c0 9.497-5.205 18.595-13.194 23.372c-7.1 4.243-16.914 3.823-26.163-.441c3.038-2.638 6.412-5.956 9.847-9.973c2.44-2.852 4.76-5.94 6.847-9.254a61.49 61.49 0 0 0 1.346 1.086c3.936 3.086 7.902 5.494 11.206 6.769c1.707.659 3.157 1.013 4.111 1.073v-3.633c0-.144-.002-.29-.004-.438c.302.232.61.47.926.712c1.827 1.4 3.546 2.628 5.078 3.472v.225Z"></path></svg>