<svg xmlns="http://www.w3.org/2000/svg" width="77" height="47" fill="none" aria-labelledby="vite-logo-title" viewBox="0 0 77 47"><title id="vite-logo-title">Vite</title><style>.parenthesis{fill:#000}@media (prefers-color-scheme:dark){.parenthesis{fill:#fff}}</style><path fill="#9135ff" d="M40.151 45.71c-.663.844-2.02.374-2.02-.699V34.708a2.26 2.26 0 0 1 1.327-2.07L74.014 20.2l2.956-.944-36.86 15.386-4.206 1.76v28.68l4.207-1.76 17.986-7.518 4.773-1.994V33.766l-4.773 1.994-3.946 1.647v-8.46l3.688-1.106 2.178-.654 2.18.654 3.685 1.105v21.576l-4.775 1.993-17.984 7.518-4.207 1.76V70.63l4.207-1.76 36.863-15.386 2.956-.944-36.86 15.386-4.206 1.76v28.682l4.206-1.76 17.986-7.518 4.773-1.994V57.595l-4.773 1.994-3.946 1.647v-8.46l3.688-1.106 2.178-.654 2.18.654 3.685 1.105v21.576l-4.775 1.993-17.984 7.518-4.207 1.76V70.63l4.207-1.76 36.863-15.386 2.956-.944-36.86 15.386-4.206 1.76v28.682l4.206-1.76 17.986-7.518 4.773-1.994V57.595l-4.773 1.994-3.946 1.647v-8.46l3.688-1.106 2.178-.654 2.18.654 3.685 1.105v21.576l-4.775 1.993-17.984 7.518-4.207 1.76V70.63l4.207-1.76 36.863-15.386 2.956-.944-36.86 15.386-4.206 1.76v28.682l4.206-1.76 17.986-7.518 4.773-1.994V57.595l-4.773 1.994-3.946 1.647v-8.46l3.688-1.106 2.178-.654 2.18.654 3.685 1.105v21.576l-4.775 1.993-17.984 7.518-4.207 1.76V70.63l4.207-1.76 36.863-15.386 2.956-.944-36.86 15.386-4.206 1.76v28.682l4.206-1.76 17.986-7.518 4.773-1.994V57.595l-4.773 1.994-3.946 1.647v-8.46l3.688-1.106 2.178-.654 2.18.654 3.685 1.105v21.576l-4.775 1.993-17.984 7.518-4.207 1.76V70.63l4.207-1.76 36.863-15.386 2.956-.944-36.86 15.386-4.206 1.76v28.682l4.206-1.76 17.986-7.518 4.773-1.994V57.595l-4.773 1.994-3.946 1.647v-8.46l3.688-1.106 2.178-.654 2.18.654 3.685 1.105v21.576l-4.775 1.993-17.984 7.518-4.207 1.76V70.63l4.207-1.76Z"></path></svg>